<?xml version="1.0" encoding="UTF-8"?>
<svg width="168px" height="24px" viewBox="0 0 168 24" version="1.1" xmlns="http://www.w3.org/2000/svg" xmlns:xlink="http://www.w3.org/1999/xlink">
    <!-- Generator: Sketch 52.6 (67491) - http://www.bohemiancoding.com/sketch -->
    <title>Group 6</title>
    <desc>Created with Sketch.</desc>
    <g id="Desktop-HD" stroke="none" stroke-width="1" fill="none" fill-rule="evenodd">
        <g id="Subsciption" transform="translate(-150.000000, -124.000000)">
            <g id="Group-26" transform="translate(150.000000, 124.000000)">
                <g id="Group-6">
                    <path d="M123,3 L126.870736,3 C127.950329,3 129.451227,3.09411765 130.715141,3.84705882 C132.189707,4.71764706 132.900658,6.22352941 132.900658,7.65882353 C132.900658,8.57647059 132.637343,9.98823529 131.189108,11.0941176 C129.793537,12.1529412 128.187313,12.3176471 126.897068,12.3176471 L125.685817,12.3176471 L125.685817,18.6941176 L123,18.6941176 L123,3 Z M125.685817,5.21176471 L125.685817,10.1058824 L126.897068,10.1058824 C129.214243,10.1058824 130.320168,9.09411765 130.320168,7.63529412 C130.320168,6.76470588 129.925194,5.21176471 126.870736,5.21176471 L125.685817,5.21176471 Z M143.336725,9.94117647 L143.336725,8.78823529 L145.917215,8.78823529 L145.917215,18.6941176 L143.336725,18.6941176 L143.336725,17.6588235 C142.204468,18.8352941 140.808897,19 140.018951,19 C136.595851,19 134.647317,16.4588235 134.647317,13.7294118 C134.647317,10.5058824 137.122482,8.52941176 140.045282,8.52941176 C140.86156,8.52941176 142.283463,8.71764706 143.336725,9.94117647 Z M140.361261,10.6 C138.491722,10.6 137.280471,12.0117647 137.280471,13.7764706 C137.280471,15.4941176 138.491722,16.9294118 140.361261,16.9294118 C141.993816,16.9294118 143.494714,15.8705882 143.494714,13.8 C143.494714,11.6352941 141.993816,10.6 140.361261,10.6 Z M156.221624,10.4823529 L154.088769,11.4941176 C153.851785,10.9294118 153.377818,10.6 152.851187,10.6 C152.508877,10.6 152.008578,10.7647059 152.008578,11.2352941 C152.008578,11.8470588 152.719529,12.0823529 153.483144,12.4117647 C154.720726,12.9294118 155.247357,13.2117647 155.589667,13.4235294 C156.721923,14.1529412 156.932575,14.9764706 156.932575,15.6352941 C156.932575,17.5176471 155.168362,19 152.877518,19 C152.508877,19 150.033712,18.9294118 149.033114,16.5529412 L151.1923,15.6588235 C151.429284,16.2941176 152.034909,16.9294118 153.009176,16.9294118 C153.799122,16.9294118 154.299422,16.5058824 154.299422,15.8705882 C154.299422,15.1411765 153.641133,14.8588235 153.114502,14.6235294 C152.008578,14.1529412 151.481947,13.9882353 150.902653,13.6588235 C149.981049,13.1176471 149.586076,12.4352941 149.586076,11.4941176 C149.586076,9.61176471 151.139637,8.52941176 153.061839,8.52941176 C154.694395,8.52941176 155.721325,9.44705882 156.221624,10.4823529 Z M166.289048,10.4823529 L164.156194,11.4941176 C163.91921,10.9294118 163.445242,10.6 162.918612,10.6 C162.576302,10.6 162.076002,10.7647059 162.076002,11.2352941 C162.076002,11.8470588 162.786954,12.0823529 163.550569,12.4117647 C164.788151,12.9294118 165.314782,13.2117647 165.657092,13.4235294 C166.789348,14.1529412 167,14.9764706 167,15.6352941 C167,17.5176471 165.235787,19 162.944943,19 C162.576302,19 160.101137,18.9294118 159.100539,16.5529412 L161.259725,15.6588235 C161.496709,16.2941176 162.102334,16.9294118 163.076601,16.9294118 C163.866547,16.9294118 164.366846,16.5058824 164.366846,15.8705882 C164.366846,15.1411765 163.708558,14.8588235 163.181927,14.6235294 C162.076002,14.1529412 161.549372,13.9882353 160.970078,13.6588235 C160.048474,13.1176471 159.653501,12.4352941 159.653501,11.4941176 C159.653501,9.61176471 161.207062,8.52941176 163.129264,8.52941176 C164.761819,8.52941176 165.788749,9.44705882 166.289048,10.4823529 Z" id="Pass" stroke="#2EAFFB" stroke-width="0.8" fill="#2EAFFB"></path>
                    <g id="logo">
                        <path d="M13.3374813,2.8678447 L10.6470881,5.50099552 C10.6470881,5.50099552 7.07516177,2.15803883 5.32354405,4.18442011 C5.32354405,4.18442011 4.04131409,5.86734694 6.58287705,7.04654057 L8.30014933,7.73344948 C8.30014933,7.73344948 13.4347934,9.31333997 13.5092086,12.8852663 C13.5092086,12.8852663 13.9900448,16.3312593 11.1050274,18.0370831 C11.1050274,18.0370831 5.54106521,21.2941762 0,15.919114 L2.74763564,13.2287208 C2.74763564,13.2287208 7.00074664,17.2127924 9.27327028,14.5452962 C9.27327028,14.5452962 10.4467397,12.2441513 6.81184669,11.0535092 C6.81184669,11.0535092 0.486560478,9.6110005 0.915878547,4.87132902 C0.915878547,4.87132902 1.04753609,0.0629666501 6.81184669,0.0629666501 C6.81184669,0.0629666501 10.3379791,-0.31483325 13.3374813,2.8678447 L13.3374813,2.8678447 Z" id="Shape" fill="#FFFFFF"></path>
                        <polygon id="Shape" fill="#FFFFFF" points="16.7720259 2.8678447 20.3782977 2.8678447 20.3782977 18.9529617 16.7720259 18.9529617"></polygon>
                        <path d="M25.2439024,7.04654057 L25.2439024,13.9156297 C25.2439024,13.9156297 24.8260329,18.9300647 30.5102041,18.9300647 C30.5102041,18.9300647 35.5017422,19.0502738 35.6047785,14.1961175 L35.6047785,7.04081633 L31.9985067,7.04081633 L31.9985067,13.566451 C31.9985067,13.566451 32.12444,15.5642111 30.5674465,15.5699353 C30.5674465,15.5699353 28.8158288,15.7130413 28.7929318,13.9099054 L28.7929318,7.04081633 L25.2439024,7.04081633 L25.2439024,7.04654057 Z" id="Shape" fill="#FFFFFF"></path>
                        <polygon id="Shape" fill="#FFFFFF" points="46.9387755 0.349178696 50.4878049 0.349178696 50.4878049 18.9529617 46.9387755 18.9529617"></polygon>
                        <path d="M44.3456944,18.9758586 L44.3456944,15.5756595 C45.7366849,15.5756595 46.8700846,14.4479841 46.8700846,13.0627178 C46.8700846,11.643106 45.7080637,10.4753609 44.2827277,10.4696366 L44.265555,10.4696366 C42.8745645,10.4696366 41.7411648,11.5973121 41.7411648,12.9825784 C41.7411648,14.4021901 42.9031857,15.5699353 44.3285217,15.5756595 L44.3456944,15.5756595 L44.3456944,18.9758586 L44.3456944,18.9758586 Z M44.3456944,18.9758586 L44.3056247,18.9758586 C41.0084619,18.9529617 38.3409657,16.2682927 38.3409657,12.9825784 C38.3409657,9.70831259 40.9912892,7.06943753 44.265555,7.06943753 L44.3056247,7.06943753 C47.6027875,7.09233449 50.2702837,9.77700348 50.2702837,13.0627178 C50.2645595,16.3369836 47.6199602,18.9758586 44.3456944,18.9758586 L44.3456944,18.9758586 L44.3456944,18.9758586 Z" id="Shape" fill="#FFFFFF"></path>
                        <polygon id="Shape" fill="#FFFFFF" points="61.3638626 6.98929816 65.1418616 6.98929816 58.736436 23.5895968 54.958437 23.5895968"></polygon>
                        <polygon id="Shape" fill="#FFFFFF" points="56.4238427 7.06943753 52.4454953 7.06943753 57.0077153 18.2889497 60.7914385 18.2889497"></polygon>
                        <polygon id="Shape" fill="#FFFFFF" points="67.5460428 0.349178696 71.6674963 0.349178696 71.6674963 18.9529617 67.5460428 18.9529617"></polygon>
                        <path d="M71.3812842,0.354902937 C71.3812842,0.354902937 76.7735192,0.0858636137 79.8703335,4.36187158 C79.8703335,4.36187158 81.5589846,6.66301643 81.6276755,9.62817322 C81.6276755,9.62817322 81.5761573,12.3586361 80.3969637,14.0930811 C80.3969637,14.0930811 77.7466401,18.9701344 71.5530114,18.9586859 L71.5530114,15.0089597 C71.5530114,15.0089597 77.1455948,14.9631658 77.5863614,9.68541563 C77.5863614,9.68541563 77.7638128,4.75111996 71.5530114,4.30462917 L71.3812842,0.354902937 L71.3812842,0.354902937 Z" id="Shape" fill="#FFFFFF"></path>
                        <polygon id="Shape" fill="#FFFFFF" points="90.7292185 7.04654057 96.7396715 18.9357889 102.578397 7.04654057 98.8576406 7.04654057 96.7396715 11.7976605 94.5644599 7.04654057"></polygon>
                        <path d="M115,12.8394724 C115,12.8394724 114.994276,11.3397213 114.2444,9.86859134 C113.8666,9.13016426 113.311349,8.40318566 112.464161,7.87083126 C112.040567,7.60751618 111.536834,7.38999502 110.952962,7.246889 C110.661025,7.17247387 110.346192,7.1209557 110.008462,7.08661025 C109.842459,7.06943753 109.665007,7.05798905 109.487556,7.05226481 C109.310105,7.04654057 109.126929,7.04654057 108.938029,7.05226481 C108.938029,7.05226481 108.852165,7.04654057 108.697611,7.05226481 C108.543056,7.05798905 108.325535,7.07516177 108.06222,7.10950722 C107.53559,7.18392235 106.848681,7.3442011 106.156048,7.69337979 C104.805127,8.39173718 103.196615,9.85714286 103.042061,12.8852663 L103.042061,12.9539572 C103.042061,12.9997511 103.042061,13.0627178 103.047785,13.1485814 C103.053509,13.3145844 103.076406,13.5492782 103.116476,13.8297661 C103.202339,14.3964659 103.374067,15.1463415 103.723245,15.896217 C104.40443,17.3902439 105.944251,18.9300647 109.046789,18.9357889 C109.046789,18.9357889 109.104032,18.9415132 109.207068,18.9415132 L109.390244,18.9415132 C109.464659,18.9415132 109.544798,18.9357889 109.636386,18.9357889 C110.002738,18.912892 110.500747,18.8556496 111.055998,18.6953708 C112.166501,18.3748133 113.517422,17.653559 114.421852,16.085117 C113.460179,15.6157292 112.498507,15.1463415 111.559731,14.6769537 C111.559731,14.6769537 110.85565,15.8904928 109.189895,15.8675958 C109.19562,15.8675958 107.100548,16.1938776 106.430811,13.520657 C106.425087,13.520657 105.749627,10.6585366 108.697611,10.1032852 C108.697611,10.1032852 111.330762,9.3877551 111.926083,13.4176207 C112.944998,13.234445 113.963912,13.0340966 115,12.8394724 L115,12.8394724 L115,12.8394724 Z" id="Shape" fill="#FFFFFF"></path>
                        <polygon id="Shape" fill="#FFFFFF" points="115 12.8280239 106.070184 14.6025386 105.555002 12.2555998 112.824788 10.881782"></polygon>
                        <polygon id="Shape" fill="#FF4032" points="15.0547536 7.04654057 28.7929318 7.04654057 28.7929318 10.6528123 15.0547536 10.6528123"></polygon>
                        <polygon id="Shape" fill="#2EAFFB" points="84.3753111 3.78372325 88.6684918 3.78372325 88.6684918 19.0102041 84.3753111 19.0102041"></polygon>
                        <path d="M86.5219014,1.6085117 C87.7068193,1.6085117 88.6684918,2.57018417 88.6684918,3.75510204 C88.6684918,4.94001991 87.7068193,5.90169238 86.5219014,5.90169238 C85.3369836,5.90169238 84.3753111,4.94001991 84.3753111,3.75510204 C84.3753111,2.57018417 85.3369836,1.6085117 86.5219014,1.6085117 L86.5219014,1.6085117 Z" id="Shape" fill="#FFFFFF"></path>
                    </g>
                </g>
            </g>
        </g>
    </g>
</svg>